<svg width="15" height="40" viewBox="0 0 15 40" fill="none" xmlns="http://www.w3.org/2000/svg">
<path d="M10.8919 1.03325L0.710303 17.3489C0.485232 17.7025 0.306589 18.1231 0.184678 18.5866C0.0627666 19.05 0 19.5471 0 20.0492C0 20.5513 0.0627666 21.0484 0.184678 21.5118C0.306589 21.9753 0.485232 22.3959 0.710303 22.7495L10.8919 38.875C11.1151 39.2315 11.3807 39.5144 11.6733 39.7075C11.9659 39.9006 12.2798 40 12.5968 40C12.9138 40 13.2277 39.9006 13.5203 39.7075C13.8129 39.5144 14.0785 39.2315 14.3017 38.875C14.749 38.1624 15 37.1985 15 36.1938C15 35.189 14.749 34.2251 14.3017 33.5125L5.80108 20.0492L14.3017 6.58591C14.7453 5.87752 14.9954 4.9214 14.9981 3.92367C14.9999 3.42315 14.9394 2.92697 14.8199 2.4636C14.7004 2.00023 14.5243 1.57877 14.3017 1.2234C14.0865 0.854206 13.8273 0.55621 13.5389 0.34663C13.2506 0.137047 12.9389 0.0200348 12.6218 0.00235367C12.3048 -0.0153275 11.9886 0.0666733 11.6917 0.243614C11.3948 0.420559 11.1229 0.688934 10.8919 1.03325Z" fill="black"/>
</svg>
