<svg width="32" height="32" viewBox="0 0 32 32" fill="none" xmlns="http://www.w3.org/2000/svg">
<path d="M26.6666 8C26.6666 8 23.61 5.608 20 5.33334L19.6746 5.984C22.9386 6.78267 24.436 7.92734 26 9.33334C23.3033 7.95667 20.6406 6.66667 16 6.66667C11.3593 6.66667 8.69665 7.95667 5.99998 9.33334C7.56398 7.92734 9.34531 6.65667 12.3253 5.984L12 5.33334C8.21265 5.69134 5.33331 8 5.33331 8C5.33331 8 1.91931 12.95 1.33331 22.6667C4.77465 26.6353 9.99998 26.6667 9.99998 26.6667L11.0926 25.21C9.23798 24.5653 7.14331 23.414 5.33331 21.3333C7.49198 22.9667 10.75 24.6667 16 24.6667C21.25 24.6667 24.508 22.9667 26.6666 21.3333C24.8566 23.414 22.762 24.5653 20.9073 25.21L22 26.6667C22 26.6667 27.2253 26.6353 30.6666 22.6667C30.0806 12.95 26.6666 8 26.6666 8ZM11.6666 20C10.378 20 9.33331 18.806 9.33331 17.3333C9.33331 15.8607 10.378 14.6667 11.6666 14.6667C12.9553 14.6667 14 15.8607 14 17.3333C14 18.806 12.9553 20 11.6666 20ZM20.3333 20C19.0446 20 18 18.806 18 17.3333C18 15.8607 19.0446 14.6667 20.3333 14.6667C21.622 14.6667 22.6666 15.8607 22.6666 17.3333C22.6666 18.806 21.622 20 20.3333 20Z" fill="#E6E6E6"/>
</svg>
