<svg width="32" height="32" viewBox="0 0 32 32" fill="none" xmlns="http://www.w3.org/2000/svg">
<path fill-rule="evenodd" clip-rule="evenodd" d="M24.6667 28C26.508 28 28 26.508 28 24.6667V7.33333C28 5.492 26.508 4 24.6667 4H7.33333C5.49267 4 4 5.492 4 7.33333V24.6667C4 26.508 5.49267 28 7.33333 28H24.6667ZM11.3333 12.6667H8V24H11.3333V12.6667ZM9.638 11.3333H9.65667C10.69 11.3333 11.3333 10.5913 11.3333 9.666C11.3147 8.72 10.69 8 9.676 8C8.66333 8 8 8.72 8 9.666C8 10.592 8.64333 11.3333 9.638 11.3333ZM20.6667 24H24L23.9993 17.516C23.9993 14.1667 22.2107 12.6667 19.8253 12.6667C17.9 12.6667 17.1473 13.6667 16.6667 14.4107V12.6667H13.3333V24H16.6667V18C16.6667 17.9444 16.6658 17.8794 16.6649 17.8088C16.6605 17.4658 16.6544 16.9889 16.734 16.7953C16.9967 16.1433 17.538 15.4687 18.5387 15.4687C19.85 15.4687 20.6667 16.4687 20.6667 17.934V24Z" fill="white"/>
</svg>
