<svg width="32" height="32" viewBox="0 0 32 32" fill="none" xmlns="http://www.w3.org/2000/svg">
<path d="M28.8 22.6C28.5334 24 27.4 25.0667 26 25.2667C23.8 25.6 20.1334 26 16 26C11.9334 26 8.26669 25.6 6.00002 25.2667C4.60002 25.0667 3.46669 24 3.20002 22.6C2.93335 21.0667 2.66669 18.8 2.66669 16C2.66669 13.2 2.93335 10.9333 3.20002 9.4C3.46669 8 4.60002 6.93333 6.00002 6.73333C8.20002 6.4 11.8667 6 16 6C20.1334 6 23.7334 6.4 26 6.73333C27.4 6.93333 28.5334 8 28.8 9.4C29.0667 10.9333 29.4 13.2 29.4 16C29.3334 18.8 29.0667 21.0667 28.8 22.6Z" fill="white"/>
<path d="M13.3333 20.6667V11.3334L21.3333 16L13.3333 20.6667Z" fill="#319AA8"/>
</svg>
