<svg width="32" height="32" viewBox="0 0 32 32" fill="none" xmlns="http://www.w3.org/2000/svg">
<path d="M16 3.19995C8.93115 3.19995 3.19995 8.93115 3.19995 16C3.19995 21.9978 7.33008 27.0165 12.8981 28.4053C12.8384 28.2325 12.8 28.032 12.8 27.7834V25.5957C12.2805 25.5957 11.4101 25.5957 11.1914 25.5957C10.3157 25.5957 9.53702 25.2192 9.15942 24.5194C8.74022 23.7418 8.66768 22.5525 7.62875 21.825C7.32048 21.5829 7.55515 21.3066 7.91035 21.344C8.56635 21.5296 9.11035 21.9797 9.62235 22.6474C10.1322 23.3162 10.3722 23.4677 11.3248 23.4677C11.7866 23.4677 12.4778 23.441 13.1285 23.3386C13.4784 22.4501 14.0832 21.632 14.8224 21.2458C10.56 20.8074 8.52582 18.6869 8.52582 15.808C8.52582 14.5685 9.05382 13.3696 9.95089 12.3594C9.65649 11.3568 9.28635 9.31195 10.064 8.53328C11.9818 8.53328 13.1413 9.77702 13.4197 10.113C14.3754 9.78555 15.425 9.59995 16.528 9.59995C17.633 9.59995 18.6869 9.78555 19.6448 10.1152C19.92 9.78128 21.0805 8.53328 23.0026 8.53328C23.7834 9.31302 23.409 11.3664 23.1114 12.3669C24.0032 13.3749 24.528 14.5706 24.528 15.808C24.528 18.6848 22.497 20.8042 18.241 21.2448C19.4122 21.856 20.2666 23.5733 20.2666 24.8672V27.7834C20.2666 27.8944 20.2421 27.9744 20.2293 28.0693C25.217 26.321 28.8 21.585 28.8 16C28.8 8.93115 23.0688 3.19995 16 3.19995Z" fill="white"/>
</svg>
