<svg width="32" height="32" viewBox="0 0 32 32" fill="none" xmlns="http://www.w3.org/2000/svg">
<path d="M20 7.33337H12C9.40004 7.33337 7.33337 9.40004 7.33337 12V20C7.33337 22.6 9.40004 24.6667 12 24.6667H20C22.6 24.6667 24.6667 22.6 24.6667 20V12C24.6667 9.40004 22.6 7.33337 20 7.33337Z" stroke="white" stroke-width="1.33333" stroke-miterlimit="10" stroke-linecap="round" stroke-linejoin="round"/>
<path d="M20.6667 11.3333C21.0349 11.3333 21.3333 11.0349 21.3333 10.6667C21.3333 10.2985 21.0349 10 20.6667 10C20.2985 10 20 10.2985 20 10.6667C20 11.0349 20.2985 11.3333 20.6667 11.3333Z" fill="white"/>
<path d="M16 20C18.2091 20 20 18.2091 20 16C20 13.7909 18.2091 12 16 12C13.7909 12 12 13.7909 12 16C12 18.2091 13.7909 20 16 20Z" stroke="white" stroke-width="1.33333" stroke-miterlimit="10" stroke-linecap="round" stroke-linejoin="round"/>
</svg>
