<svg width="32" height="32" viewBox="0 0 32 32" fill="none" xmlns="http://www.w3.org/2000/svg">
<path fill-rule="evenodd" clip-rule="evenodd" d="M26 25.2667C27.4 25.0667 28.5333 24 28.8 22.6C29.0666 21.0667 29.3333 18.8 29.4 16C29.4 13.2 29.0666 10.9333 28.8 9.4C28.5333 8 27.4 6.93333 26 6.73333C23.7333 6.4 20.1333 6 16 6C11.8666 6 8.19996 6.4 5.99996 6.73333C4.59996 6.93333 3.46663 8 3.19996 9.4C2.93329 10.9333 2.66663 13.2 2.66663 16C2.66663 18.8 2.93329 21.0667 3.19996 22.6C3.46663 24 4.59996 25.0667 5.99996 25.2667C8.26663 25.6 11.9333 26 16 26C20.1333 26 23.8 25.6 26 25.2667ZM21.3334 16L13.3334 11.3334V20.6667L21.3334 16Z" fill="white"/>
</svg>
