<svg width="64" height="64" viewBox="0 0 64 64" fill="none" xmlns="http://www.w3.org/2000/svg">
<path d="M32 6.39999C17.8624 6.39999 6.40002 17.8624 6.40002 32C6.40002 43.9957 14.6603 54.0331 25.7963 56.8107C25.6768 56.4651 25.6 56.064 25.6 55.5669V51.1915C24.5611 51.1915 22.8203 51.1915 22.383 51.1915C20.6315 51.1915 19.0742 50.4384 18.319 49.0389C17.4806 47.4837 17.3355 45.1051 15.2576 43.6501C14.6411 43.1659 15.1104 42.6133 15.8208 42.688C17.1328 43.0592 18.2208 43.9595 19.2448 45.2949C20.2646 46.6325 20.7446 46.9355 22.6496 46.9355C23.5734 46.9355 24.9558 46.8821 26.2571 46.6773C26.9568 44.9003 28.1664 43.264 29.6448 42.4917C21.12 41.6149 17.0518 37.3739 17.0518 31.616C17.0518 29.1371 18.1078 26.7392 19.9019 24.7189C19.3131 22.7136 18.5728 18.624 20.128 17.0667C23.9638 17.0667 26.2827 19.5541 26.8395 20.2261C28.751 19.5712 30.8502 19.2 33.056 19.2C35.2662 19.2 37.3739 19.5712 39.2896 20.2304C39.84 19.5627 42.1611 17.0667 46.0054 17.0667C47.567 18.6261 46.8182 22.7328 46.223 24.7339C48.0064 26.7499 49.056 29.1413 49.056 31.616C49.056 37.3696 44.9942 41.6085 36.4822 42.4896C38.8246 43.712 40.5334 47.1467 40.5334 49.7344V55.5669C40.5334 55.7888 40.4843 55.9488 40.4587 56.1387C50.4342 52.6421 57.6 43.1701 57.6 32C57.6 17.8624 46.1376 6.39999 32 6.39999Z" fill="white"/>
</svg>
