<svg width="32" height="32" viewBox="0 0 32 32" fill="none" xmlns="http://www.w3.org/2000/svg">
<path d="M27.78 8.98667C27.5133 9.16 27.1334 9.32 26.9734 9.5C26.9133 9.56 26.88 9.62667 26.8934 9.69333V10.38L26.6934 11.0533L26.4934 11.72L26.2733 12.4533L25.82 13.9533L25.38 15.4333L25.0467 16.5467C25.0467 16.72 25.04 16.8933 25.0267 17.06C24.98 17.7 24.8467 18.3133 24.6334 18.8867C24.5067 19.24 24.3533 19.58 24.1667 19.9C24.1 20.0267 24.02 20.1533 23.94 20.2733C23.6733 20.6933 23.3534 21.08 23 21.42C22.7267 21.6933 22.4267 21.9467 22.1 22.16C22.1 22.16 22.1 22.16 22.0933 22.16C22.04 22.2067 21.98 22.2467 21.9133 22.28C21.7067 22.42 21.4867 22.54 21.26 22.6467C21.1067 22.7267 20.9534 22.7933 20.7934 22.8533C20.76 22.8733 20.72 22.8867 20.6867 22.9C20.3067 23.08 19.8667 23.2 19.4267 23.26C19.4 23.2667 19.38 23.2667 19.3534 23.2733C19.0867 23.32 18.8267 23.36 18.56 23.38C18.44 23.3933 18.3134 23.4 18.1934 23.4L17.72 23.3733L15.44 23.2533C15.44 23.2467 15.4333 23.2533 15.4333 23.2533L14.2867 23.1933C14.2 23.1933 14.1067 23.1933 14.02 23.1867C13.66 23.1733 13.3134 23.1333 12.9667 23.06C12.96 23.06 12.96 23.06 12.96 23.06C12.3267 22.94 11.72 22.7267 11.1533 22.44C10.84 22.28 10.5333 22.1 10.2467 21.8933C10.1267 21.8067 10.0134 21.7133 9.90002 21.6133C9.58002 21.3467 9.29335 21.06 9.02668 20.7667C8.98668 20.7267 8.95335 20.6867 8.92002 20.6467C8.88002 20.6067 8.84002 20.56 8.80668 20.52C8.55335 20.2 8.34002 19.8733 8.16668 19.5267C8.00668 19.22 7.88002 18.8933 7.78002 18.5333C7.74002 18.4067 7.70668 18.2867 7.68002 18.1533C7.67335 18.1467 7.66668 18.1333 7.66668 18.12C7.60002 17.8467 7.54002 17.56 7.50668 17.2733C7.46668 17.0533 7.44668 16.8333 7.44668 16.6067C7.43335 16.52 7.43335 16.4267 7.43335 16.34L8.70668 14.3733L9.95335 12.4533L10.52 11.58L11.0333 10.7933L11.2067 10.52V9.83333C11.22 9.68 11.2267 9.52 11.22 9.37333C11.2133 8.90667 11.12 8.45333 10.9667 8.02C10.82 7.56 10.6134 7.12667 10.4 6.72667C10.1467 6.26667 9.88002 5.85333 9.66002 5.48C9.33335 4.93333 9.10668 4.48667 9.16668 4.17333C9.64668 4.06 10.1533 4 10.6667 4H21.3334C24.12 4 26.52 5.73333 27.5134 8.17333C27.62 8.43333 27.7133 8.70667 27.78 8.98667Z" fill="#304FFE"/>
<path d="M28 10.6667V10.8467L27.08 11.38L26.4933 11.72L25.8466 12.0933L24.5533 12.8467L23.2866 13.58L21.9933 14.3267L21.48 14.6267C21.48 14.9467 21.4 15.24 21.2533 15.5067C21.0466 15.8933 20.7 16.2133 20.26 16.4867C19.8133 16.76 19.2666 16.98 18.6533 17.14C18.6533 17.14 18.6533 17.1333 18.6466 17.14C16.2733 17.7533 13.0333 17.4733 11.46 16.3C11.02 15.9733 10.7133 15.5733 10.58 15.1133C10.54 14.96 10.52 14.7933 10.52 14.6267V9.83333C10.5266 9.73333 10.46 9.63333 10.34 9.53333C9.97998 9.24667 9.13331 8.97333 8.18664 8.7C7.44664 8.49333 6.65331 8.28667 5.98664 8.08667C5.45998 7.92667 5.01331 7.76667 4.74664 7.61333C4.86664 7.38 5.00664 7.14667 5.15331 6.92667C6.08664 5.56 7.51331 4.55333 9.16664 4.17333C9.64664 4.06 10.1533 4 10.6666 4H17.8666C21.4466 4.62667 24.7466 6.08667 27.5133 8.17333C27.62 8.43333 27.7133 8.70667 27.78 8.98667C27.9 9.42667 27.9733 9.88 27.9933 10.3533C28 10.4533 28 10.56 28 10.6667Z" fill="#4928F4"/>
<path d="M28 10.6667V13.6067L27.8533 14.06L27.3533 15.6133L26.8333 17.2133L26.56 18.0667L26.3067 18.86L26.06 19.6133L25.82 20.36L25.6933 20.7533L25.5267 21.2733C25.5267 21.78 25.5133 22.2267 25.48 22.6067C25.4733 22.6467 25.4667 22.6867 25.4667 22.7267C25.4267 23.08 25.3733 23.38 25.2867 23.6333C25.28 23.6733 25.2667 23.7133 25.2533 23.7467C25.08 24.2267 24.82 24.5333 24.4333 24.7333C24.34 24.7867 24.2333 24.8267 24.12 24.8667C23.7667 24.9867 23.32 25.0467 22.7733 25.08C22.3733 25.1067 21.9133 25.1133 21.3933 25.1133H20.9333L20.14 25.08L20 25.0733L18.5533 25.0133L17.0867 24.9533L12.2533 24.7533L11 24.7H10.8267C10.3067 24.6933 9.86001 24.66 9.47334 24.6067C8.91334 24.52 8.48001 24.3733 8.15334 24.1533C7.68668 23.8533 7.41334 23.4133 7.25334 22.8C7.21334 22.6533 7.18001 22.5 7.16001 22.3333C7.09334 21.9467 7.06001 21.5 7.04001 21C7.04001 20.9 7.04001 20.8 7.03334 20.6933C7.02668 20.6867 7.03334 20.6867 7.03334 20.6867V20.3C7.02668 20.1067 7.02668 19.9067 7.02668 19.7L7.06001 18.6267L7.08001 17.86L7.10668 16.9667V16.84L7.15334 15.2L7.20001 13.56L7.24668 12.02L7.28668 10.5067L7.30001 10.1067C7.30001 9.9 6.60001 9.78 5.82001 9.68C5.20001 9.6 4.52001 9.52667 4.11334 9.43333C4.14668 9.28 4.18001 9.12667 4.22001 8.98C4.34001 8.5 4.52001 8.04667 4.74668 7.61333C4.86668 7.38 5.00668 7.14667 5.15334 6.92667C6.59334 6.29333 8.09334 5.8 9.66001 5.48C11.0333 5.19333 12.4667 5.04 13.9467 5.04C18.8533 5.04 23.3867 6.7 26.9733 9.5C27.32 9.76667 27.66 10.0533 27.9933 10.3533C28 10.4533 28 10.56 28 10.6667Z" fill="#6200EA"/>
<path d="M28 12.2467V15.2733L27.6333 15.98L26.9333 17.3467L26.56 18.0667L26.22 18.7267L26.0733 19.0133C26.0733 19.22 26.0733 19.42 26.06 19.6133C26.06 19.9 26.0467 20.1733 26.0267 20.4267C26 20.7267 25.96 21 25.92 21.2533C25.82 21.78 25.68 22.2333 25.48 22.6067C25.4533 22.6533 25.4267 22.7 25.4 22.74C25.3267 22.86 25.24 22.9733 25.1467 23.08C25.0267 23.2267 24.8933 23.3533 24.74 23.46C24.5133 23.6333 24.2467 23.7733 23.94 23.88C23.56 24.02 23.12 24.1133 22.6 24.1667C22.26 24.2 21.8867 24.22 21.48 24.22L21.2 24.2333L19.8133 24.3133H19.8067L18.3333 24.4L16.8333 24.4867L14.7667 24.6067L12.2533 24.7533L11.8867 24.7733C11.5467 24.7733 11.2267 24.7533 10.92 24.7133C10.8867 24.7067 10.86 24.7 10.8267 24.7C10.3733 24.6267 9.96 24.5067 9.58667 24.34C9.13333 24.14 8.74 23.8733 8.40667 23.5533C8.11333 23.2667 7.86 22.94 7.65333 22.5733C7.60667 22.4867 7.56 22.4067 7.52 22.3133C7.32 21.92 7.16 21.48 7.04 21C7.02 20.92 7 20.8333 6.98667 20.7467C6.94667 20.5933 6.91333 20.4333 6.89333 20.2667C6.82 19.84 6.78 19.3867 6.76 18.9133V18.9067C6.75333 18.7133 6.74667 18.5267 6.74667 18.3267L6.42 17.5467L6.37333 17.4267L6.33333 17.3267L5.83333 16.1333L5.75333 15.94L5.27333 14.7867L4.74 13.5C4.74 13.5 4.74 13.5 4.73333 13.5L4.19333 12.2L4 11.7267V10.6667C4 10.2467 4.04 9.83333 4.11333 9.43333C4.14667 9.28 4.18 9.12667 4.22 8.98C4.78667 8.65333 5.38 8.35333 5.98667 8.08667C7.37333 7.46667 8.86 7.00667 10.4 6.72667C11.5467 6.52 12.74 6.40667 13.9467 6.40667C18.82 6.40667 23.24 8.17333 26.6933 11.0533C26.8267 11.16 26.9533 11.2667 27.08 11.38C27.3933 11.6533 27.7 11.94 28 12.2467Z" fill="#673AB7"/>
<path d="M28 14.2333V17.66L27.62 18.4533L26.9 19.9533L26.8933 19.9733C26.8933 20.26 26.88 20.52 26.86 20.7533C26.7933 21.52 26.6067 22.0067 26.3 22.3067C26.08 22.5333 25.8067 22.66 25.4667 22.7267C25.4467 22.7333 25.42 22.7333 25.4 22.74C25.2933 22.76 25.18 22.7733 25.06 22.7733C24.6467 22.8133 24.16 22.7867 23.6 22.7467C23.54 22.7467 23.4733 22.74 23.4067 22.7333C23 22.7067 22.5667 22.68 22.0867 22.66C21.8267 22.6533 21.5533 22.6467 21.2733 22.6467H21.26L20.5867 22.7H20.58L19.0667 22.8067L17.34 22.94L17.0867 22.96L15.0667 23.1067L14.02 23.1867L12.9867 23.26C12.8067 23.26 12.6333 23.26 12.46 23.2533C12.46 23.2533 12.4533 23.2467 12.4533 23.2533C11.7 23.24 11.0267 23.1933 10.4267 23.08C9.87333 22.9867 9.38667 22.84 8.97333 22.62C8.54667 22.4133 8.19333 22.12 7.90667 21.7467C7.63333 21.38 7.43333 20.92 7.30667 20.3667C7.30667 20.36 7.30667 20.36 7.30667 20.36C7.21333 19.9133 7.16 19.3933 7.16 18.8067L7.06 18.6267L6.46667 17.5667L6.38 17.42L6.33333 17.3267L5.71333 16.2267L5.40667 15.6733L5.02 14.9867L4.35333 13.7933L4 13.1667V10.7133C4.58667 10.3267 5.19333 9.98667 5.82 9.68C6.58 9.29333 7.36667 8.96667 8.18667 8.7C9.08 8.40667 10.0133 8.17333 10.9667 8.02C11.9333 7.86 12.9267 7.78 13.9467 7.78C18.48 7.78 22.64 9.4 25.8467 12.0933C25.9933 12.2067 26.1333 12.3333 26.2733 12.4533C26.8333 12.9533 27.3667 13.4933 27.8533 14.06C27.9067 14.12 27.96 14.1733 28 14.2333Z" fill="#8E24AA"/>
<path d="M28 16.4733V21.2933C27.84 21.2 27.62 21.0867 27.3467 20.9667C27.2 20.8933 27.0333 20.82 26.86 20.7533C26.6067 20.64 26.3333 20.5333 26.0267 20.4267C25.96 20.4 25.8933 20.38 25.82 20.36C25.7 20.3133 25.5733 20.2733 25.4467 20.2333C25.0533 20.1133 24.62 20 24.1667 19.9C23.9933 19.8667 23.8133 19.8333 23.6333 19.8067C23.0533 19.7067 22.4333 19.6467 21.7867 19.64C21.7333 19.6333 21.6733 19.6333 21.62 19.6333L19.9067 19.6467L17.5733 19.66H17.5667L12.5733 19.7C10.9867 19.7 10.0133 20.08 9.42667 20.2333C9.42667 20.2333 9.42 20.2333 9.42 20.24C8.8 20.4 8.60667 20.3 8.55333 19.2133C8.54 18.9133 8.53333 18.5267 8.53333 18.0533L8.16 17.7667L7.50667 17.2733L7.10667 16.9667L7.02667 16.9067L5.92 16.0667L5.75333 15.94L5.40667 15.6733L4.76667 15.1933L4 14.6067V12.34C4.06667 12.2867 4.12667 12.24 4.19333 12.2C5.16 11.5333 6.19333 10.9667 7.28667 10.5067C8.26 10.0933 9.28667 9.76667 10.34 9.53333C10.6267 9.47333 10.92 9.41333 11.22 9.37333C12.1067 9.22 13.02 9.14667 13.9467 9.14667C17.9533 9.14667 21.6333 10.54 24.5533 12.8467C24.9933 13.1933 25.42 13.56 25.82 13.9533C26.3667 14.4733 26.88 15.0267 27.3533 15.6133C27.4467 15.7333 27.54 15.8533 27.6333 15.98C27.76 16.14 27.88 16.3067 28 16.4733Z" fill="#C2185B"/>
<path d="M28 19.1467V21.3333C28 21.7667 27.96 22.1933 27.88 22.6067C27.76 23.22 27.5533 23.8067 27.2733 24.3533C27.1267 24.3867 26.96 24.3867 26.7733 24.36C26.3533 24.2867 25.86 24.0667 25.3267 23.78C25.3 23.7733 25.2733 23.76 25.2533 23.7467C25.0867 23.66 24.9133 23.5667 24.74 23.46C24.3867 23.2667 24.0133 23.0533 23.64 22.8533C23.56 22.8133 23.48 22.7733 23.4067 22.7333C22.98 22.5133 22.54 22.3133 22.1 22.16C22.1 22.16 22.1 22.16 22.0933 22.16C22 22.1267 21.9 22.0933 21.8 22.0667C21.42 21.96 21.0333 21.8933 20.66 21.8933L19.9267 21.68L16.68 20.74C16.68 20.74 16.68 20.74 16.6733 20.74L14.68 20.16H14.6733L13.8067 19.9067C11.3 19.9067 9.76 20.9733 9.01333 20.5667C8.72 20.4133 8.54667 20.0267 8.48667 19.2667C8.46667 19.0533 8.46 18.8133 8.46 18.5333L7.68 18.1533L7.64667 18.14H7.64L7.08 17.86L6.46667 17.5667L6.42 17.5467L6.30667 17.4867L5 16.8533L4 16.3667V14.08C4.11333 13.98 4.23333 13.8867 4.35333 13.7933C4.48 13.6933 4.60667 13.6 4.73333 13.5C4.74 13.5 4.74 13.5 4.74 13.5C5.52667 12.9333 6.36 12.4333 7.24667 12.02C8.28 11.5267 9.38 11.1467 10.52 10.9C10.6867 10.86 10.86 10.82 11.0333 10.7933C11.98 10.6133 12.9533 10.52 13.9467 10.52C17.46 10.52 20.6867 11.66 23.2867 13.58C24.04 14.14 24.74 14.76 25.38 15.4333C25.9067 15.9867 26.3933 16.5867 26.8333 17.2133C26.8667 17.26 26.9 17.3067 26.9333 17.3467C27.18 17.7067 27.4067 18.0733 27.62 18.4533C27.76 18.68 27.88 18.9133 28 19.1467Z" fill="#D81B60"/>
<path d="M27.88 22.6067C27.76 23.22 27.5533 23.8067 27.2733 24.3533C27.1467 24.6 27.0067 24.8333 26.8533 25.06C26.76 25.2 26.66 25.3333 26.56 25.46C26.32 25.3667 25.9667 25.2333 25.5333 25.0867C25.5333 25.0867 25.5333 25.0867 25.5333 25.08C25.2067 24.9667 24.8333 24.8467 24.4333 24.7333C24.32 24.7 24.2067 24.6667 24.0867 24.6333C23.6133 24.5067 23.12 24.3933 22.64 24.3267C22.24 24.26 21.8467 24.22 21.48 24.22L21.1733 24.1333H21.1667L19.5533 23.6667L18.56 23.38L17.4533 23.06H17.4467L17.0867 22.96L12.7333 21.7067L11.48 21.3467L10.5467 21.1267L9.02667 20.7667L8.84 20.72C8.84 20.72 8.84 20.72 8.83333 20.72L7.30667 20.3667C7.30667 20.36 7.30667 20.36 7.30667 20.36L7.03333 20.3L6.89333 20.2667L5.78 20.0067L5.65333 19.9733L4.70667 19.1933L4 18.6V15.88C4.24667 15.64 4.5 15.4133 4.76667 15.1933C4.84667 15.12 4.93333 15.0533 5.02 14.9867C5.1 14.92 5.18667 14.8533 5.27333 14.7867C5.88 14.3267 6.52 13.9133 7.2 13.56C8.06667 13.0933 8.98667 12.72 9.95333 12.4533C10.14 12.3933 10.3267 12.34 10.52 12.3C11.6133 12.0267 12.76 11.8867 13.9467 11.8867C16.9267 11.8867 19.7 12.7867 21.9933 14.3267C23.1333 15.0933 24.16 16.0133 25.0267 17.06C25.4667 17.5867 25.8667 18.14 26.22 18.7267C26.2533 18.7733 26.28 18.8133 26.3067 18.86C26.52 19.2133 26.72 19.58 26.9 19.9533C27.0667 20.2867 27.2133 20.62 27.3467 20.9667C27.56 21.5 27.7333 22.0467 27.88 22.6067Z" fill="#F50057"/>
<path d="M26.8533 25.06C26.76 25.2 26.66 25.3333 26.56 25.46C26.2667 25.8267 25.9467 26.16 25.5867 26.4533C25.2733 26.7133 24.94 26.9467 24.5867 27.1467C24.4533 27.1133 24.32 27.0733 24.18 27.02C23.74 26.8667 23.28 26.6133 22.8533 26.3467C22.2133 25.94 21.66 25.5 21.4133 25.3C21.32 25.22 21.2733 25.18 21.2733 25.18L20.14 25.08L20 25.0667L18.5333 24.94L17.0133 24.8067L14.7667 24.6067L11.2067 24.2933L11.1933 24.2867L9.94 23.68L8.67333 23.0667L7.65333 22.5733L7.43333 22.4667L7.16 22.3333L6.21333 21.8733L4.95333 21.2667L4.56 21.0733L4 20.9V17.92C4.31333 17.5467 4.64667 17.1933 5 16.8533C5.22667 16.64 5.46667 16.4267 5.71333 16.2267C5.75333 16.1933 5.79333 16.16 5.83333 16.1333C5.86 16.1 5.89333 16.08 5.92 16.0667C6.31333 15.7467 6.72667 15.46 7.15333 15.2C7.64667 14.8867 8.16667 14.6067 8.70667 14.3733C9.28667 14.1133 9.89333 13.8933 10.52 13.7267C11.6067 13.42 12.76 13.26 13.9467 13.26C16.6667 13.26 19.18 14.0867 21.2533 15.5067C22.58 16.4133 23.7267 17.56 24.6333 18.8867C24.9333 19.3133 25.2 19.7667 25.4467 20.2333C25.5333 20.4067 25.62 20.58 25.6933 20.7533C25.7733 20.92 25.8467 21.0867 25.92 21.2533C26.06 21.6 26.1867 21.9467 26.3 22.3067C26.5133 22.9733 26.6733 23.6533 26.7733 24.36C26.8067 24.5933 26.8333 24.8267 26.8533 25.06Z" fill="#FF1744"/>
<path d="M25.5933 26.28C25.5933 26.3333 25.5933 26.3933 25.5867 26.4533C25.2733 26.7133 24.94 26.9467 24.5867 27.1467C24.44 27.2267 24.2933 27.3067 24.14 27.3733C23.9867 27.4467 23.8333 27.5133 23.6733 27.5733C23.4467 27.4533 23.14 27.3067 22.8133 27.1667C22.3533 26.96 21.8533 26.7733 21.4667 26.7133C21.3733 26.6933 21.2867 26.6867 21.2067 26.6867L20.1133 26.5467H20.1L18.74 26.3667L17.3667 26.1867L16.7267 26.1067L11.6867 25.4533C11.36 25.4533 11.0133 25.4333 10.6533 25.3867C10.2133 25.3467 9.75333 25.28 9.29333 25.1867C8.84 25.1067 8.38 25 7.94 24.8867C7.48 24.78 7.02667 24.6533 6.60667 24.5333C6.12 24.3867 5.66667 24.2467 5.28667 24.12C4.97333 24.02 4.70667 23.9267 4.5 23.8533C4.38 23.5667 4.28 23.2667 4.20667 22.96C4.06667 22.44 4 21.8933 4 21.3333V20.22C4.21333 19.8667 4.44667 19.52 4.70667 19.1933C5.18 18.5667 5.72 17.9933 6.30667 17.4867C6.32667 17.46 6.35333 17.44 6.37333 17.4267L6.38 17.42C6.58667 17.2333 6.8 17.0667 7.02667 16.9067C7.05333 16.88 7.08 16.86 7.10667 16.84C7.21333 16.76 7.32667 16.68 7.44667 16.6067C8.4 15.96 9.45333 15.4533 10.58 15.1133C11.6467 14.7933 12.7733 14.6267 13.9467 14.6267C16.2733 14.6267 18.4467 15.3133 20.26 16.4867C21.6 17.3467 22.7533 18.48 23.6333 19.8067C23.74 19.96 23.84 20.1133 23.94 20.2733C24.4 21.0533 24.78 21.8933 25.06 22.7733C25.0933 22.8733 25.12 22.9733 25.1467 23.08C25.2 23.26 25.2467 23.4467 25.2867 23.6333C25.3 23.68 25.3133 23.7267 25.3267 23.78C25.42 24.2 25.4867 24.64 25.5333 25.08C25.5333 25.0867 25.5333 25.0867 25.5333 25.0867C25.5733 25.48 25.5933 25.88 25.5933 26.28Z" fill="#FF5722"/>
<path d="M24.22 26.28C24.22 26.5133 24.2067 26.7667 24.18 27.02C24.1667 27.14 24.1533 27.26 24.14 27.3733C23.9867 27.4467 23.8333 27.5133 23.6733 27.5733C23.3733 27.6867 23.0667 27.78 22.7533 27.8467C22.54 27.8933 22.32 27.9333 22.1 27.9533H22.0933C21.8867 27.8267 21.6467 27.6733 21.4 27.5C20.9533 27.1867 20.4867 26.8333 20.1133 26.5467C20.1067 26.54 20.1067 26.54 20.1 26.5333C19.7067 26.2333 19.4267 26.0067 19.4267 26.0067L18.72 26.0333L17.36 26.08L16.7267 26.1067L14.18 26.2L12.0267 26.28C11.8867 26.2867 11.72 26.2867 11.5133 26.28H11.5067C11.2267 26.2733 10.8933 26.2533 10.5267 26.22C10.1 26.1867 9.63333 26.1467 9.16 26.1C8.7 26.0467 8.23333 25.9933 7.78667 25.94C7.29333 25.8867 6.82667 25.8267 6.42667 25.7733C6.11333 25.7333 5.84 25.7 5.62 25.6733C5.43333 25.46 5.26666 25.24 5.10667 25C4.86667 24.64 4.66 24.26 4.5 23.8533C4.38 23.5667 4.28 23.2667 4.20667 22.96C4.4 22.3667 4.65333 21.8067 4.95333 21.2667C5.19333 20.8267 5.47333 20.4067 5.78 20.0067C6.08 19.6133 6.40667 19.2467 6.76 18.9133V18.9067C6.86 18.8067 6.96 18.7133 7.06 18.6267C7.24667 18.4533 7.44 18.2933 7.64 18.14H7.64667C7.65333 18.1267 7.66 18.1267 7.66667 18.12C7.82667 17.9933 7.99333 17.88 8.16 17.7667C9.14667 17.0933 10.26 16.5933 11.46 16.3C12.2533 16.1067 13.0867 16 13.9467 16C15.64 16 17.24 16.4067 18.6467 17.14H18.6533C19.86 17.76 20.9267 18.6133 21.7867 19.64C22.26 20.1867 22.6667 20.7867 23 21.42C23.2333 21.8467 23.4333 22.2933 23.6 22.7467C23.6133 22.7867 23.6267 22.82 23.64 22.8533C23.7533 23.1867 23.8533 23.5333 23.94 23.88C24 24.1267 24.0467 24.38 24.0867 24.6333C24.1 24.7133 24.1133 24.7867 24.12 24.8667C24.1867 25.3267 24.22 25.8 24.22 26.28Z" fill="#FF6F00"/>
<path d="M22.8534 26.28V26.3467C22.8534 26.5733 22.8334 26.86 22.8134 27.1667C22.7934 27.3933 22.7734 27.6267 22.7534 27.8467C22.54 27.8933 22.32 27.9333 22.1 27.9533H22.0934C21.84 27.9867 21.5934 28 21.3334 28H20.1667L19.9134 27.9267L18.6 27.5267L17.2667 27.1267L14.18 26.2L12.8467 25.8C12.8467 25.8 12.2934 26.02 11.5134 26.28H11.5067C11.2067 26.38 10.88 26.4867 10.5334 26.5933C10.1 26.72 9.64002 26.8467 9.18669 26.9467C8.72002 27.0533 8.26002 27.1333 7.84669 27.1667C7.72002 27.18 7.59336 27.1867 7.48002 27.1867C7.10669 26.98 6.74669 26.7333 6.42002 26.46C6.13336 26.22 5.86669 25.96 5.62002 25.6733C5.43336 25.46 5.26669 25.24 5.10669 25C5.15336 24.7 5.20669 24.4067 5.28669 24.12C5.48669 23.3267 5.80002 22.5667 6.21336 21.8733C6.44002 21.48 6.69336 21.1 6.98669 20.7467C6.99336 20.7267 7.01336 20.7067 7.03336 20.6933C7.02669 20.6867 7.03336 20.6867 7.03336 20.6867C7.12002 20.5733 7.21336 20.4667 7.30669 20.3667C7.30669 20.36 7.30669 20.36 7.30669 20.36C7.58002 20.0667 7.86002 19.7867 8.16669 19.5267C8.27336 19.44 8.37336 19.3533 8.48669 19.2667C8.50669 19.2467 8.52669 19.2333 8.55336 19.2133C10.0534 18.0667 11.9267 17.3733 13.9467 17.3733C16.24 17.3733 18.3267 18.2333 19.9067 19.6467C20.6667 20.3333 21.3134 21.1533 21.8 22.0667C21.84 22.1333 21.88 22.2067 21.9134 22.28C21.9734 22.4 22.0334 22.5267 22.0867 22.66C22.3067 23.14 22.48 23.6467 22.6 24.1667C22.6134 24.22 22.6267 24.2733 22.64 24.3267C22.6934 24.5733 22.74 24.8267 22.7734 25.08C22.8267 25.4733 22.8534 25.8733 22.8534 26.28Z" fill="#FF9800"/>
<path d="M21.48 26.28C21.48 26.4133 21.4733 26.56 21.4667 26.7133C21.4533 26.96 21.4333 27.2267 21.4 27.5C21.3867 27.6667 21.36 27.8333 21.3333 28H17.68L16.9733 27.8867L14.2133 27.4467L13.82 27.3867L12.92 27.24C12.5267 27.24 11.6733 27.4133 10.7733 27.58C10.3 27.6667 9.82001 27.76 9.38668 27.82C9.33334 27.8267 9.28001 27.8333 9.23334 27.84H9.22668C8.76001 27.74 8.30668 27.5867 7.88001 27.3867C7.74668 27.3267 7.61334 27.26 7.48001 27.1867C7.10668 26.98 6.74668 26.7333 6.42001 26.46C6.41334 26.38 6.40668 26.3133 6.40668 26.28C6.40668 26.1067 6.41334 25.94 6.42668 25.7733C6.45334 25.3467 6.51334 24.9333 6.60668 24.5333C6.75334 23.9267 6.96668 23.34 7.25334 22.8C7.30668 22.6867 7.36668 22.5733 7.43334 22.4667C7.46001 22.4133 7.49334 22.3667 7.52001 22.3133C7.64001 22.12 7.77334 21.9333 7.90668 21.7467C8.18668 21.38 8.50001 21.0333 8.83334 20.72C8.84001 20.72 8.84001 20.72 8.84001 20.72C8.86668 20.6933 8.89334 20.6667 8.92001 20.6467C8.95334 20.62 8.98001 20.5867 9.01334 20.5667C9.14668 20.4467 9.28001 20.34 9.42001 20.24C9.42001 20.2333 9.42668 20.2333 9.42668 20.2333C10.6867 19.2933 12.2467 18.74 13.9467 18.74C15.2667 18.74 16.4933 19.0733 17.5667 19.66H17.5733C18.4933 20.1667 19.2933 20.8533 19.9267 21.68C20.1733 22 20.3933 22.34 20.58 22.7H20.5867C20.62 22.7667 20.6533 22.8333 20.6867 22.9C20.8867 23.2933 21.0467 23.7067 21.1667 24.1333H21.1733C21.18 24.1667 21.1933 24.2 21.2 24.2333C21.28 24.52 21.3467 24.8133 21.3933 25.1133C21.4 25.1733 21.4067 25.24 21.4133 25.3C21.46 25.62 21.48 25.9467 21.48 26.28Z" fill="#FFC107"/>
<path d="M20.1134 26.2067C20.1134 26.3133 20.1134 26.4267 20.1 26.5333V26.54C20.1 26.5467 20.1 26.5467 20.1 26.5467C20.0867 27.0267 20.02 27.5 19.9134 27.9267C19.9134 27.9533 19.9067 27.9733 19.8934 28H16.78L14.2134 27.4467L13.8734 27.3733L13.82 27.3867L10.9734 27.9733L10.8467 28H10.6667C10.24 28 9.82003 27.96 9.41336 27.88C9.35336 27.8667 9.29336 27.8533 9.23336 27.84H9.2267C8.76003 27.74 8.3067 27.5867 7.88003 27.3867C7.8667 27.3133 7.85336 27.24 7.8467 27.1667C7.80003 26.88 7.78003 26.58 7.78003 26.28C7.78003 26.1667 7.78003 26.0533 7.7867 25.94C7.8067 25.58 7.86003 25.2267 7.94003 24.8867C7.99336 24.6333 8.0667 24.3867 8.15336 24.1533C8.2267 23.9467 8.31336 23.7467 8.4067 23.5533C8.4867 23.3867 8.58003 23.2267 8.67336 23.0667C8.7667 22.9133 8.8667 22.7667 8.97336 22.62C9.24003 22.2533 9.55336 21.9133 9.90003 21.6133C10.1 21.44 10.32 21.2733 10.5467 21.1267C11.52 20.4867 12.6867 20.1133 13.9467 20.1133C14.1934 20.1133 14.4334 20.1267 14.6667 20.16H14.68C15.3934 20.24 16.06 20.44 16.6734 20.74C16.68 20.74 16.68 20.74 16.68 20.74C17.6467 21.2133 18.4667 21.9267 19.0667 22.8067C19.1667 22.9533 19.2667 23.1133 19.3534 23.2733C19.4267 23.4 19.4934 23.5333 19.5534 23.6667C19.6467 23.8733 19.7334 24.0933 19.8067 24.3133H19.8134C19.8867 24.56 19.9534 24.8067 20 25.0667V25.0733C20.0734 25.44 20.1134 25.82 20.1134 26.2067Z" fill="#FFD54F"/>
<path d="M18.74 26.3467V26.3667C18.74 26.76 18.6933 27.1467 18.6 27.5267C18.5667 27.6867 18.52 27.8467 18.46 28H15.4733L13.9467 27.58L12.42 28H10.6667C10.24 28 9.82 27.96 9.41333 27.88C9.4 27.86 9.39333 27.84 9.38667 27.82C9.29333 27.5333 9.22 27.2467 9.18667 26.9467C9.16 26.7533 9.14667 26.5533 9.14667 26.3467C9.14667 26.2667 9.14667 26.18 9.16 26.1C9.16667 25.7867 9.21333 25.48 9.29333 25.1867C9.33333 24.9867 9.39333 24.7933 9.47333 24.6067C9.5 24.5133 9.54 24.4267 9.58667 24.34C9.68667 24.1133 9.80667 23.8933 9.94 23.68C10.0867 23.4667 10.2467 23.2667 10.4267 23.08C10.64 22.84 10.88 22.62 11.1533 22.44C11.62 22.1 12.1533 21.8467 12.7333 21.7067C13.12 21.6 13.5267 21.5467 13.9467 21.5467C15.28 21.5467 16.4733 22.08 17.34 22.94C17.3733 22.9733 17.4133 23.0133 17.4467 23.06H17.4533C17.5467 23.16 17.6333 23.26 17.72 23.3733C17.9667 23.6867 18.1733 24.0267 18.3333 24.4C18.4133 24.5733 18.48 24.7533 18.5333 24.94C18.54 24.9667 18.5467 24.9867 18.5533 25.0133C18.6467 25.34 18.7067 25.68 18.72 26.0333C18.7333 26.1333 18.74 26.24 18.74 26.3467Z" fill="#FFE082"/>
<path d="M17.3734 26.3467C17.3734 26.62 17.34 26.88 17.2667 27.1267C17.2 27.3933 17.1 27.6467 16.9734 27.8867C16.9534 27.9267 16.9067 28 16.9067 28H10.9867C10.98 27.9933 10.9734 27.98 10.9734 27.9733C10.8934 27.8467 10.8267 27.72 10.7734 27.58C10.64 27.2733 10.56 26.94 10.5334 26.5933C10.52 26.5133 10.52 26.4267 10.52 26.3467C10.52 26.3067 10.52 26.26 10.5267 26.22C10.5334 25.9267 10.5734 25.6467 10.6534 25.3867C10.72 25.1467 10.8067 24.9267 10.92 24.7133C10.92 24.7133 10.9267 24.7067 10.9267 24.7C11.0067 24.56 11.0934 24.42 11.1934 24.2867C11.52 23.8467 11.9534 23.4867 12.4534 23.2533C12.46 23.2533 12.46 23.2533 12.46 23.2533C12.62 23.1733 12.7867 23.1067 12.96 23.06C12.96 23.06 12.96 23.06 12.9667 23.06C13.2734 22.9667 13.6067 22.92 13.9467 22.92C14.34 22.92 14.72 22.98 15.0667 23.1067C15.1934 23.14 15.3134 23.1933 15.4334 23.2533C15.4334 23.2533 15.4334 23.2533 15.44 23.2533C16.0134 23.5267 16.5 23.9533 16.8334 24.4867C16.9 24.5867 16.96 24.6933 17.0134 24.8067C17.04 24.8533 17.0667 24.9067 17.0867 24.9533C17.24 25.3 17.3334 25.68 17.36 26.08C17.3667 26.1133 17.3667 26.1467 17.3667 26.1867C17.3734 26.24 17.3734 26.2933 17.3734 26.3467Z" fill="#FFECB3"/>
<path d="M20 7.33333H12C9.39998 7.33333 7.33331 9.4 7.33331 12V20C7.33331 22.6 9.39998 24.6667 12 24.6667H20C22.6 24.6667 24.6666 22.6 24.6666 20V12C24.6666 9.4 22.6 7.33333 20 7.33333Z" stroke="white" stroke-width="1.33333" stroke-miterlimit="10" stroke-linecap="round" stroke-linejoin="round"/>
<path d="M20.6667 11.3333C21.0349 11.3333 21.3333 11.0349 21.3333 10.6667C21.3333 10.2985 21.0349 10 20.6667 10C20.2985 10 20 10.2985 20 10.6667C20 11.0349 20.2985 11.3333 20.6667 11.3333Z" fill="white"/>
<path d="M16 20C18.2091 20 20 18.2091 20 16C20 13.7909 18.2091 12 16 12C13.7909 12 12 13.7909 12 16C12 18.2091 13.7909 20 16 20Z" stroke="white" stroke-width="1.33333" stroke-miterlimit="10" stroke-linecap="round" stroke-linejoin="round"/>
</svg>
