<svg width="64" height="64" viewBox="0 0 64 64" fill="none" xmlns="http://www.w3.org/2000/svg">
<path d="M45.356 55.9867L18.6894 56.012C12.8227 56.0173 8.0187 51.2227 8.01203 45.356L7.9867 18.6893C7.98137 12.8227 12.776 8.01867 18.6427 8.012L45.3094 7.98667C51.176 7.98133 55.98 12.776 55.9867 18.6427L56.012 45.3093C56.0187 51.1773 51.2227 55.9813 45.356 55.9867Z" fill="url(#paint0_radial_349_109)"/>
<path d="M45.356 55.9867L18.6894 56.012C12.8227 56.0173 8.0187 51.2227 8.01203 45.356L7.9867 18.6893C7.98137 12.8227 12.776 8.01867 18.6427 8.012L45.3094 7.98667C51.176 7.98133 55.98 12.776 55.9867 18.6427L56.012 45.3093C56.0187 51.1773 51.2227 55.9813 45.356 55.9867Z" fill="url(#paint1_radial_349_109)"/>
<path d="M32 41.3333C26.8546 41.3333 22.6666 37.1467 22.6666 32C22.6666 26.8533 26.8546 22.6667 32 22.6667C37.1453 22.6667 41.3333 26.8533 41.3333 32C41.3333 37.1467 37.1453 41.3333 32 41.3333ZM32 25.3333C28.324 25.3333 25.3333 28.324 25.3333 32C25.3333 35.676 28.324 38.6667 32 38.6667C35.676 38.6667 38.6666 35.676 38.6666 32C38.6666 28.324 35.676 25.3333 32 25.3333Z" fill="white"/>
<path d="M42 24C43.1046 24 44 23.1046 44 22C44 20.8954 43.1046 20 42 20C40.8954 20 40 20.8954 40 22C40 23.1046 40.8954 24 42 24Z" fill="white"/>
<path d="M40 49.3333H24C18.8546 49.3333 14.6666 45.1467 14.6666 40V24C14.6666 18.8533 18.8546 14.6667 24 14.6667H40C45.1453 14.6667 49.3333 18.8533 49.3333 24V40C49.3333 45.1467 45.1453 49.3333 40 49.3333ZM24 17.3333C20.324 17.3333 17.3333 20.324 17.3333 24V40C17.3333 43.676 20.324 46.6667 24 46.6667H40C43.676 46.6667 46.6666 43.676 46.6666 40V24C46.6666 20.324 43.676 17.3333 40 17.3333H24Z" fill="white"/>
<defs>
<radialGradient id="paint0_radial_349_109" cx="0" cy="0" r="1" gradientUnits="userSpaceOnUse" gradientTransform="translate(25.84 56.0467) scale(59.8653)">
<stop stop-color="#FFDD55"/>
<stop offset="0.328" stop-color="#FF543F"/>
<stop offset="0.348" stop-color="#FC5245"/>
<stop offset="0.504" stop-color="#E64771"/>
<stop offset="0.643" stop-color="#D53E91"/>
<stop offset="0.761" stop-color="#CC39A4"/>
<stop offset="0.841" stop-color="#C837AB"/>
</radialGradient>
<radialGradient id="paint1_radial_349_109" cx="0" cy="0" r="1" gradientUnits="userSpaceOnUse" gradientTransform="translate(15.7147 7.38707) scale(39.7507 26.4859)">
<stop stop-color="#4168C9"/>
<stop offset="0.999" stop-color="#4168C9" stop-opacity="0"/>
</radialGradient>
</defs>
</svg>
