<svg id="Capa_1" data-name="Capa 1" xmlns="http://www.w3.org/2000/svg" viewBox="0 0 32 32"><defs><style>.cls-1{fill:#fff;}.cls-2{fill:none;}</style></defs><g id="Layer_2" data-name="Layer 2"><path class="cls-1" d="M31.88,12.56h-24a1,1,0,0,1,0-2h24a1,1,0,0,1,0,2Z" transform="translate(-3.88 -2.56)"/><path class="cls-1" d="M31.88,19.56h-24a1,1,0,1,1,0-2h24a1,1,0,1,1,0,2Z" transform="translate(-3.88 -2.56)"/><path class="cls-1" d="M31.88,26.56h-24a1,1,0,1,1,0-2h24a1,1,0,1,1,0,2Z" transform="translate(-3.88 -2.56)"/></g><g id="frame"><rect class="cls-2" width="32" height="32"/></g></svg>