<svg width="32" height="50" viewBox="0 0 32 50" fill="none" xmlns="http://www.w3.org/2000/svg">
<g clip-path="url(#clip0_703_98)">
<path d="M11.2747 26.2763C11.2385 26.2761 11.2028 26.2684 11.1697 26.2537C11.1367 26.2389 11.1071 26.2175 11.0828 26.1908C11.0586 26.164 11.0402 26.1325 11.0289 26.0983C11.0176 26.0641 11.0136 26.0279 11.0172 25.9921C11.7116 18.7232 8.95427 11.2894 4.36454 5.44431C3.46655 4.30076 2.48361 3.16525 1.60315 1.99489C1.48449 1.39697 1.3591 0.801727 1.21887 0.207829C1.2098 0.168392 1.21527 0.12703 1.23428 0.0912609C1.25329 0.0554913 1.28457 0.0276857 1.32245 0.0129131C1.36033 -0.00185947 1.40228 -0.00262003 1.44068 0.0107611C1.47908 0.0241423 1.51137 0.0507837 1.53169 0.0858359C2.63463 1.98014 4.20543 3.69614 5.57669 5.44834C10.0599 11.1594 12.882 18.2366 12.3669 25.3312C12.3359 25.7575 12.2321 25.6516 13.0856 25.4398L14.7036 25.0483C15.6738 24.8134 16.6896 24.8407 17.6456 25.1274L19.1558 25.5953C19.8879 25.8205 19.8299 25.9023 19.8124 25.6409C19.242 18.4859 21.9697 11.1943 26.4543 5.44431C27.8161 3.7015 29.3748 1.98282 30.471 0.0925374C30.4913 0.0578368 30.5235 0.0314938 30.5616 0.0182399C30.5998 0.0049861 30.6414 0.00568753 30.6791 0.0202201C30.7168 0.0347527 30.748 0.0621611 30.7672 0.0975287C30.7864 0.132896 30.7923 0.173904 30.7838 0.213189C30.6489 0.809767 30.5141 1.40769 30.4009 2.00829C29.5285 3.17866 28.5563 4.30478 27.6678 5.44431C23.0835 11.3243 20.3329 18.813 21.069 26.1235C21.0716 26.1472 21.0689 26.1712 21.0613 26.1938C21.0537 26.2164 21.0413 26.2371 21.0249 26.2545C21.0086 26.2719 20.9886 26.2857 20.9665 26.2947C20.9443 26.3038 20.9204 26.308 20.8965 26.3071L17.1117 25.5483C16.5145 25.4289 15.8999 25.4238 15.3009 25.5336L11.2747 26.2763Z" fill="white"/>
<path d="M29.8818 20.3534C30.7097 16.7458 30.5115 13.0028 30.7043 9.3107C30.866 6.24644 31.2982 3.20223 31.996 0.213206C32.0065 0.173518 32.002 0.131371 31.9834 0.0947553C31.9647 0.05814 31.9332 0.0296021 31.8948 0.0145583C31.8564 -0.000485483 31.8138 -0.000985635 31.775 0.0131427C31.7362 0.0272711 31.704 0.0550498 31.6845 0.0912123C31.2936 0.754253 30.8645 1.39434 30.3996 2.00831C29.9246 4.4182 29.6209 6.85837 29.4908 9.3107C29.298 13.0028 29.4908 16.7458 28.6683 20.3534C28.0184 23.1835 26.5986 25.9935 24.3536 27.81C24.3332 27.8259 24.3166 27.8463 24.3052 27.8695C24.2939 27.8927 24.2879 27.9182 24.2879 27.9441C24.2879 27.9699 24.2939 27.9954 24.3052 28.0186C24.3166 28.0419 24.3332 28.0622 24.3536 28.0781C25.195 28.7819 25.8711 29.6602 26.3347 30.6514C26.7982 31.6427 27.0379 32.7228 27.0368 33.816C27.0372 34.5278 26.936 35.236 26.7361 35.9195C26.7274 35.9512 26.7283 35.9847 26.7386 36.0159C26.7489 36.0472 26.7682 36.0747 26.7941 36.0951C28.6076 37.5698 29.7362 39.6196 29.7362 41.8919C29.7362 46.2034 25.6804 49.7279 20.5675 49.9853C20.7698 49.996 20.972 50.0027 21.1796 50.0027C26.573 50.0027 30.9551 46.371 30.9551 41.8919C30.9551 39.6129 29.8265 37.5671 28.013 36.0951C27.9873 36.0743 27.9684 36.0464 27.9585 36.0149C27.9487 35.9834 27.9484 35.9497 27.9577 35.9181C28.1547 35.2347 28.2532 34.5269 28.2503 33.816C28.2513 32.7221 28.0112 31.6412 27.5469 30.6494C27.0827 29.6577 26.4055 28.7791 25.5631 28.0754C25.5426 28.0595 25.5261 28.0392 25.5147 28.0159C25.5033 27.9927 25.4974 27.9672 25.4974 27.9414C25.4974 27.9155 25.5033 27.8901 25.5147 27.8668C25.5261 27.8436 25.5426 27.8232 25.5631 27.8073C27.8121 25.9935 29.2319 23.1835 29.8818 20.3534Z" fill="white"/>
<path d="M2.09248 41.8901C2.09248 39.6607 3.23047 37.6417 5.0696 36.175C5.09611 36.1542 5.11561 36.1259 5.12549 36.0938C5.13536 36.0617 5.13515 36.0274 5.12488 35.9954C4.90228 35.2775 4.78912 34.5305 4.78914 33.7793C4.78835 32.6666 5.03685 31.5677 5.5166 30.5625C5.99636 29.5572 6.6953 28.6708 7.56267 27.9677C7.58313 27.9518 7.59968 27.9314 7.61106 27.9082C7.62244 27.885 7.62835 27.8595 7.62835 27.8336C7.62835 27.8078 7.62244 27.7823 7.61106 27.7591C7.59968 27.7359 7.58313 27.7155 7.56267 27.6996C5.37567 25.8804 3.98823 23.1227 3.34642 20.3476C2.5145 16.74 2.71271 12.9969 2.51855 9.30485C2.38782 6.84771 2.08142 4.40294 1.60168 1.98905C1.13614 1.37826 0.707086 0.740813 0.316723 0.0799988C0.296408 0.0449466 0.264119 0.0183134 0.225721 0.00493225C0.187323 -0.00844889 0.145365 -0.00768833 0.107486 0.00708426C0.0696079 0.0218569 0.038323 0.0496543 0.0193148 0.0854238C0.000306525 0.121193 -0.00516181 0.162563 0.00390901 0.202C0.706837 3.19218 1.14225 6.23834 1.30505 9.30485C1.49921 12.9969 1.30505 16.74 2.13292 20.3476C2.77473 23.1227 4.15543 25.8804 6.34917 27.6996C6.36963 27.7155 6.38618 27.7359 6.39756 27.7591C6.40894 27.7823 6.41485 27.8078 6.41485 27.8336C6.41485 27.8595 6.40894 27.885 6.39756 27.9082C6.38618 27.9314 6.36963 27.9518 6.34917 27.9677C5.4818 28.6708 4.78286 29.5572 4.3031 30.5625C3.82335 31.5677 3.57485 32.6666 3.57564 33.7793C3.57562 34.5305 3.68878 35.2775 3.91138 35.9954C3.92165 36.0274 3.92186 36.0617 3.91199 36.0938C3.90211 36.1259 3.88261 36.1542 3.8561 36.175C2.01697 37.6417 0.878976 39.6607 0.878976 41.8901C0.878976 46.3691 5.46331 50.0009 11.1263 50.0009C11.3326 50.0009 11.5376 50.0009 11.7412 49.9862C6.35995 49.7395 2.09248 46.2096 2.09248 41.8901Z" fill="white"/>
<path opacity="0.9" d="M18.1377 31.9525V32.2876C18.1377 32.4787 18.0615 32.662 17.9258 32.7972C17.79 32.9324 17.6058 33.0086 17.4137 33.0089H15.4923C15.2999 33.0089 15.1154 32.9329 14.9794 32.7977C14.8433 32.6624 14.7669 32.4789 14.7669 32.2876V31.9525C14.7669 31.7616 14.6906 31.5784 14.5548 31.4434C14.4191 31.3084 14.2349 31.2326 14.0429 31.2326H9.28998C9.19478 31.2324 9.10049 31.2509 9.01249 31.287C8.92448 31.3231 8.8445 31.3761 8.77712 31.443C8.70974 31.5098 8.65629 31.5892 8.61982 31.6767C8.58335 31.7641 8.56458 31.8578 8.56458 31.9525V34.2651C8.56458 34.4564 8.64101 34.6398 8.77705 34.7751C8.91309 34.9103 9.09759 34.9863 9.28998 34.9863H14.0429C14.235 34.986 14.4192 34.9098 14.5549 34.7746C14.6907 34.6394 14.7669 34.4561 14.7669 34.2651C14.7669 34.1704 14.7857 34.0767 14.8222 33.9893C14.8586 33.9018 14.9121 33.8224 14.9795 33.7555C15.0468 33.6887 15.1268 33.6357 15.2148 33.5996C15.3028 33.5635 15.3971 33.545 15.4923 33.5452H17.4137C17.5088 33.5452 17.6029 33.5638 17.6908 33.6C17.7786 33.6361 17.8584 33.6892 17.9257 33.756C17.9929 33.8229 18.0462 33.9022 18.0826 33.9896C18.119 34.0769 18.1377 34.1705 18.1377 34.2651C18.1377 34.4564 18.2142 34.6398 18.3502 34.7751C18.4862 34.9103 18.6708 34.9863 18.8631 34.9863H23.616C23.8082 34.986 23.9923 34.9098 24.1281 34.7746C24.2638 34.6394 24.3401 34.4561 24.3401 34.2651V31.9525C24.3401 31.7616 24.2638 31.5784 24.128 31.4434C23.9922 31.3084 23.8081 31.2326 23.616 31.2326H18.8631C18.7679 31.2324 18.6737 31.2509 18.5857 31.287C18.4976 31.3231 18.4177 31.3761 18.3503 31.443C18.2829 31.5098 18.2295 31.5892 18.193 31.6767C18.1565 31.7641 18.1377 31.8578 18.1377 31.9525Z" fill="white"/>
<path d="M16.8379 37.6475L17.446 36.8565C17.5096 36.7737 17.5486 36.6749 17.5587 36.5712C17.5688 36.4675 17.5496 36.3631 17.5032 36.2697C17.4568 36.1763 17.3851 36.0977 17.2961 36.0426C17.2072 35.9876 17.1045 35.9584 16.9997 35.9583H15.7997C15.6957 35.9583 15.5936 35.9871 15.505 36.0414C15.4164 36.0957 15.3447 36.1734 15.2979 36.2658C15.2511 36.3582 15.231 36.4618 15.2398 36.5649C15.2487 36.668 15.2861 36.7666 15.348 36.8498L15.94 37.6421C15.9919 37.7115 16.0594 37.768 16.1371 37.8071C16.2148 37.8462 16.3005 37.8668 16.3876 37.8673C16.4747 37.8679 16.5607 37.8483 16.6388 37.8101C16.717 37.772 16.7851 37.7163 16.8379 37.6475Z" fill="#B79C9F"/>
</g>
<defs>
<clipPath id="clip0_703_98">
<rect width="32" height="50" fill="white"/>
</clipPath>
</defs>
</svg>
