<svg id="Dibujo" xmlns="http://www.w3.org/2000/svg" viewBox="0 0 237.33 372.96"><defs><style>.cls-1,.cls-4{fill:#fff;}.cls-2{fill:#0e9c2d;opacity:0.9;}.cls-3{fill:#fa9fa9;}.cls-4{opacity:0.2;}</style></defs><path class="cls-1" d="M-561.1-450.24a1.93,1.93,0,0,1-1.91-2.12c5.15-54.22-15.3-109.67-49.34-153.27-6.66-8.53-13.95-17-20.48-25.73-.88-4.46-1.81-8.9-2.85-13.33a1.26,1.26,0,0,1,2.32-.91c8.18,14.13,19.83,26.93,30,40C-570.11-563-549.18-510.21-553-457.29c-.23,3.18-1,2.39,5.33.81l12-2.92a41.54,41.54,0,0,1,21.82.59l11.2,3.49c5.43,1.68,5,2.29,4.87.34-4.23-53.37,16-107.76,49.26-150.65,10.1-13,21.66-25.82,29.79-39.92a1.26,1.26,0,0,1,2.32.9c-1,4.45-2,8.91-2.84,13.39-6.47,8.73-13.68,17.13-20.27,25.63-34,43.86-54.4,99.72-48.94,154.25a1.24,1.24,0,0,1-1.28,1.37l-28.07-5.66a35.48,35.48,0,0,0-13.43-.11Z" transform="translate(644.72 646.24)"/><path class="cls-1" d="M-423.1-494.42c6.14-26.91,4.67-54.83,6.1-82.37a390.69,390.69,0,0,1,9.58-67.86,1.25,1.25,0,0,0-2.31-.91,149.24,149.24,0,0,1-9.53,14.3A390.07,390.07,0,0,0-426-576.79c-1.43,27.54,0,55.46-6.1,82.37-4.82,21.11-15.35,42.07-32,55.62a1.27,1.27,0,0,0,0,2A55.86,55.86,0,0,1-444.2-394a56.07,56.07,0,0,1-2.23,15.69A1.25,1.25,0,0,0-446-377c13.45,11,21.82,26.29,21.82,43.24,0,32.16-30.08,58.45-68,60.37,1.5.08,3,.13,4.54.13,40,0,72.5-27.09,72.5-60.5,0-17-8.37-32.26-21.82-43.24a1.25,1.25,0,0,1-.41-1.32A56.07,56.07,0,0,0-435.2-394a55.86,55.86,0,0,0-19.93-42.82,1.27,1.27,0,0,1,0-2C-438.45-452.35-427.92-473.31-423.1-494.42Z" transform="translate(644.72 646.24)"/><path class="cls-1" d="M-629.2-333.77c0-16.63,8.44-31.69,22.08-42.63a1.23,1.23,0,0,0,.41-1.34,56.1,56.1,0,0,1-2.49-16.53,55.88,55.88,0,0,1,20.57-43.35,1.27,1.27,0,0,0,0-2c-16.22-13.57-26.51-34.14-31.27-54.84-6.17-26.91-4.7-54.83-6.14-82.37a386.94,386.94,0,0,0-6.8-54.57,146,146,0,0,1-9.53-14.24,1.26,1.26,0,0,0-2.32.91,388.25,388.25,0,0,1,9.65,67.9c1.44,27.54,0,55.46,6.14,82.37,4.76,20.7,15,41.27,31.27,54.84a1.27,1.27,0,0,1,0,2,55.88,55.88,0,0,0-20.57,43.35,56.1,56.1,0,0,0,2.49,16.53,1.23,1.23,0,0,1-.41,1.34c-13.64,10.94-22.08,26-22.08,42.63,0,33.41,34,60.5,76,60.5,1.53,0,3.05,0,4.56-.11C-597.55-275.22-629.2-301.55-629.2-333.77Z" transform="translate(644.72 646.24)"/><path class="cls-2" d="M-510.2-407.9v2.5a5.38,5.38,0,0,1-5.37,5.38h-14.25a5.38,5.38,0,0,1-5.38-5.38v-2.5a5.37,5.37,0,0,0-5.37-5.37h-35.25a5.37,5.37,0,0,0-5.38,5.37v17.25a5.38,5.38,0,0,0,5.38,5.38h35.25a5.38,5.38,0,0,0,5.37-5.38h0a5.37,5.37,0,0,1,5.38-5.37h14.25a5.37,5.37,0,0,1,5.37,5.37h0a5.38,5.38,0,0,0,5.38,5.38h35.25a5.38,5.38,0,0,0,5.37-5.38V-407.9a5.37,5.37,0,0,0-5.37-5.37h-35.25A5.37,5.37,0,0,0-510.2-407.9Z" transform="translate(644.72 646.24)"/><path class="cls-3" d="M-519.84-365.42l4.51-5.9a4.17,4.17,0,0,0-3.31-6.7h-8.9a4.17,4.17,0,0,0-3.35,6.65l4.39,5.91A4.17,4.17,0,0,0-519.84-365.42Z" transform="translate(644.72 646.24)"/><path class="cls-4" d="M-504.95-408.8s-.88,21.86,14.05,18A25.34,25.34,0,0,1-504.95-408.8Z" transform="translate(644.72 646.24)"/><path class="cls-4" d="M-574.32-408.8s-.88,21.86,14.05,18A25.34,25.34,0,0,1-574.32-408.8Z" transform="translate(644.72 646.24)"/><line class="cls-1" x1="87.08" y1="372.85" x2="152.47" y2="372.84"/></svg>