<svg width="35" height="30" viewBox="0 0 35 30" fill="none" xmlns="http://www.w3.org/2000/svg">
<path d="M3.84027 19.75V22.7155C3.84027 25.75 6.98577 26.5675 8.02602 23.299C8.79777 20.8757 8.93352 12.5358 8.93352 12.5358C8.93352 10.8888 10.2685 9.553 11.9163 9.25H30.46C32.107 9.553 33.4428 10.8888 33.4428 12.5358C33.46 17.9455 33.5725 22.1748 32.6433 26.2165C32.281 27.793 30.8718 28.6765 28.2438 28.6765H5.85252C2.37102 28.6765 0.840271 27.25 0.840271 23.6882V3.691C0.840271 2.20525 2.04477 1 3.53127 1H11.3868C12.4165 1 13.3563 1.588 13.8063 2.5135L14.5225 3.9865C14.9733 4.912 15.913 5.5 16.9428 5.5H25.483C27.199 5.5 28.591 6.89125 28.591 8.608V15.5852" stroke="white" stroke-width="1.5" stroke-miterlimit="10" stroke-linecap="round" stroke-linejoin="round"/>
</svg>
