<svg width="48" height="48" viewBox="0 0 48 48" fill="none" xmlns="http://www.w3.org/2000/svg">
<path d="M11.8403 30.75V33.7155C11.8403 36.75 14.9858 37.5675 16.026 34.299C16.7978 31.8757 16.9335 23.5358 16.9335 23.5358C16.9335 21.8888 18.2685 20.553 19.9163 20.25H38.46C40.107 20.553 41.4428 21.8888 41.4428 23.5358C41.46 28.9455 41.5725 33.1748 40.6433 37.2165C40.281 38.793 38.8718 39.6765 36.2438 39.6765H13.8525C10.371 39.6765 8.84027 38.25 8.84027 34.6882V14.691C8.84027 13.2052 10.0448 12 11.5313 12H19.3868C20.4165 12 21.3563 12.588 21.8063 13.5135L22.5225 14.9865C22.9733 15.912 23.913 16.5 24.9428 16.5H33.483C35.199 16.5 36.591 17.8912 36.591 19.608V26.5852" stroke="black" stroke-width="1.5" stroke-miterlimit="10" stroke-linecap="round" stroke-linejoin="round"/>
</svg>
