<svg width="32" height="32" viewBox="0 0 32 32" fill="none" xmlns="http://www.w3.org/2000/svg">
<path d="M28.8 22.6C28.5333 24 27.4 25.0667 26 25.2667C23.8 25.6 20.1333 26 16 26C11.9333 26 8.26666 25.6 5.99999 25.2667C4.59999 25.0667 3.46666 24 3.19999 22.6C2.93332 21.0667 2.66666 18.8 2.66666 16C2.66666 13.2 2.93332 10.9333 3.19999 9.4C3.46666 8 4.59999 6.93333 5.99999 6.73333C8.19999 6.4 11.8667 6 16 6C20.1333 6 23.7333 6.4 26 6.73333C27.4 6.93333 28.5333 8 28.8 9.4C29.0667 10.9333 29.4 13.2 29.4 16C29.3333 18.8 29.0667 21.0667 28.8 22.6Z" fill="#FF3D00"/>
<path d="M13.3333 20.6667V11.3333L21.3333 16L13.3333 20.6667Z" fill="white"/>
</svg>
